<mxfile host="app.diagrams.net" modified="2021-10-26T10:07:09.102Z" agent="5.0 (Windows NT 10.0; Win64; x64) AppleWebKit/537.36 (KHTML, like Gecko) Chrome/95.0.4638.54 Safari/537.36" etag="x6TlI7ubgIxK1k3FxECg" version="15.5.9" type="github">
  <diagram name="Page-1" id="bfe91b75-5d2c-26a0-9c1d-138518896778">
    <mxGraphModel dx="1422" dy="794" grid="1" gridSize="10" guides="1" tooltips="1" connect="1" arrows="1" fold="1" page="1" pageScale="1" pageWidth="1100" pageHeight="850" background="none" math="0" shadow="0">
      <root>
        <mxCell id="0" />
        <mxCell id="1" parent="0" />
        <mxCell id="Ba882-5L1owNX3IlnAx7-25" value="安全设备资源池2" style="rounded=1;whiteSpace=wrap;html=1;fontSize=16;fontColor=#1A1A1A;labelPosition=center;verticalLabelPosition=bottom;align=center;verticalAlign=top;" vertex="1" parent="1">
          <mxGeometry x="404" y="310" width="200" height="210" as="geometry" />
        </mxCell>
        <mxCell id="Ba882-5L1owNX3IlnAx7-24" value="安全设备资源池1" style="rounded=1;whiteSpace=wrap;html=1;fontSize=16;fontColor=#1A1A1A;labelPosition=center;verticalLabelPosition=bottom;align=center;verticalAlign=top;" vertex="1" parent="1">
          <mxGeometry x="60" y="310" width="200" height="210" as="geometry" />
        </mxCell>
        <mxCell id="Ba882-5L1owNX3IlnAx7-1" value="&lt;font style=&quot;font-size: 18px&quot; color=&quot;#1a1a1a&quot;&gt;&lt;b&gt;外部网络&lt;/b&gt;&lt;/font&gt;" style="html=1;outlineConnect=0;fillColor=#CCCCCC;strokeColor=#6881B3;gradientColor=none;gradientDirection=north;strokeWidth=2;shape=mxgraph.networks.cloud;fontColor=#ffffff;" vertex="1" parent="1">
          <mxGeometry x="260" y="60" width="144" height="80" as="geometry" />
        </mxCell>
        <mxCell id="Ba882-5L1owNX3IlnAx7-2" value="外网防火墙" style="fontColor=#FF3333;verticalAlign=middle;verticalLabelPosition=middle;labelPosition=center;align=center;html=1;outlineConnect=0;fillColor=#CCCCCC;strokeColor=#6881B3;gradientColor=none;gradientDirection=north;strokeWidth=2;shape=mxgraph.networks.firewall;fontStyle=1" vertex="1" parent="1">
          <mxGeometry x="220" y="210" width="70" height="70" as="geometry" />
        </mxCell>
        <mxCell id="Ba882-5L1owNX3IlnAx7-3" value="外网防火墙" style="fontColor=#FF3333;verticalAlign=middle;verticalLabelPosition=middle;labelPosition=center;align=center;html=1;outlineConnect=0;fillColor=#CCCCCC;strokeColor=#6881B3;gradientColor=none;gradientDirection=north;strokeWidth=2;shape=mxgraph.networks.firewall;fontStyle=1" vertex="1" parent="1">
          <mxGeometry x="370" y="210" width="70" height="70" as="geometry" />
        </mxCell>
        <mxCell id="Ba882-5L1owNX3IlnAx7-4" value="安全在线检测设备1" style="fontColor=#0066CC;verticalAlign=top;verticalLabelPosition=bottom;labelPosition=center;align=center;html=1;outlineConnect=0;fillColor=#CCCCCC;strokeColor=#6881B3;gradientColor=none;gradientDirection=north;strokeWidth=2;shape=mxgraph.networks.nas_filer;" vertex="1" parent="1">
          <mxGeometry x="110" y="330" width="100" height="35" as="geometry" />
        </mxCell>
        <mxCell id="Ba882-5L1owNX3IlnAx7-5" value="NPB设备" style="fontColor=#FF3333;verticalAlign=middle;verticalLabelPosition=middle;labelPosition=center;align=center;html=1;outlineConnect=0;fillColor=#CCCCCC;strokeColor=#6881B3;gradientColor=none;gradientDirection=north;strokeWidth=2;shape=mxgraph.networks.switch;fontStyle=1" vertex="1" parent="1">
          <mxGeometry x="282" y="360" width="100" height="30" as="geometry" />
        </mxCell>
        <mxCell id="Ba882-5L1owNX3IlnAx7-6" value="安全在线检测设备2" style="fontColor=#0066CC;verticalAlign=top;verticalLabelPosition=bottom;labelPosition=center;align=center;html=1;outlineConnect=0;fillColor=#CCCCCC;strokeColor=#6881B3;gradientColor=none;gradientDirection=north;strokeWidth=2;shape=mxgraph.networks.nas_filer;" vertex="1" parent="1">
          <mxGeometry x="110" y="390" width="100" height="35" as="geometry" />
        </mxCell>
        <mxCell id="Ba882-5L1owNX3IlnAx7-7" value="安全在线检测设备3" style="fontColor=#0066CC;verticalAlign=top;verticalLabelPosition=bottom;labelPosition=center;align=center;html=1;outlineConnect=0;fillColor=#CCCCCC;strokeColor=#6881B3;gradientColor=none;gradientDirection=north;strokeWidth=2;shape=mxgraph.networks.nas_filer;" vertex="1" parent="1">
          <mxGeometry x="110" y="450" width="100" height="35" as="geometry" />
        </mxCell>
        <mxCell id="Ba882-5L1owNX3IlnAx7-9" value="" style="endArrow=classic;startArrow=classic;html=1;rounded=0;exitX=0.5;exitY=1;exitDx=0;exitDy=0;exitPerimeter=0;entryX=0.5;entryY=0;entryDx=0;entryDy=0;entryPerimeter=0;" edge="1" parent="1" source="Ba882-5L1owNX3IlnAx7-1" target="Ba882-5L1owNX3IlnAx7-2">
          <mxGeometry width="50" height="50" relative="1" as="geometry">
            <mxPoint x="520" y="430" as="sourcePoint" />
            <mxPoint x="570" y="380" as="targetPoint" />
          </mxGeometry>
        </mxCell>
        <mxCell id="Ba882-5L1owNX3IlnAx7-10" value="" style="endArrow=classic;startArrow=classic;html=1;rounded=0;exitX=0.5;exitY=1;exitDx=0;exitDy=0;exitPerimeter=0;entryX=0.5;entryY=0;entryDx=0;entryDy=0;entryPerimeter=0;" edge="1" parent="1" source="Ba882-5L1owNX3IlnAx7-1" target="Ba882-5L1owNX3IlnAx7-3">
          <mxGeometry width="50" height="50" relative="1" as="geometry">
            <mxPoint x="342" y="150" as="sourcePoint" />
            <mxPoint x="280" y="220" as="targetPoint" />
          </mxGeometry>
        </mxCell>
        <mxCell id="Ba882-5L1owNX3IlnAx7-11" value="" style="endArrow=classic;startArrow=classic;html=1;rounded=0;exitX=0.5;exitY=1;exitDx=0;exitDy=0;exitPerimeter=0;entryX=0.5;entryY=0;entryDx=0;entryDy=0;entryPerimeter=0;" edge="1" parent="1" source="Ba882-5L1owNX3IlnAx7-2" target="Ba882-5L1owNX3IlnAx7-5">
          <mxGeometry width="50" height="50" relative="1" as="geometry">
            <mxPoint x="342" y="150" as="sourcePoint" />
            <mxPoint x="280" y="220" as="targetPoint" />
          </mxGeometry>
        </mxCell>
        <mxCell id="Ba882-5L1owNX3IlnAx7-12" value="" style="endArrow=classic;startArrow=classic;html=1;rounded=0;exitX=0.5;exitY=1;exitDx=0;exitDy=0;exitPerimeter=0;entryX=0.5;entryY=0;entryDx=0;entryDy=0;entryPerimeter=0;" edge="1" parent="1" source="Ba882-5L1owNX3IlnAx7-3" target="Ba882-5L1owNX3IlnAx7-5">
          <mxGeometry width="50" height="50" relative="1" as="geometry">
            <mxPoint x="404" y="335" as="sourcePoint" />
            <mxPoint x="466" y="385" as="targetPoint" />
          </mxGeometry>
        </mxCell>
        <mxCell id="Ba882-5L1owNX3IlnAx7-13" value="" style="endArrow=classic;startArrow=classic;html=1;rounded=0;entryX=0;entryY=0.5;entryDx=0;entryDy=0;entryPerimeter=0;" edge="1" parent="1" source="Ba882-5L1owNX3IlnAx7-4" target="Ba882-5L1owNX3IlnAx7-5">
          <mxGeometry width="50" height="50" relative="1" as="geometry">
            <mxPoint x="210" y="310" as="sourcePoint" />
            <mxPoint x="272" y="360" as="targetPoint" />
          </mxGeometry>
        </mxCell>
        <mxCell id="Ba882-5L1owNX3IlnAx7-14" value="" style="endArrow=classic;startArrow=classic;html=1;rounded=0;entryX=0;entryY=0.5;entryDx=0;entryDy=0;entryPerimeter=0;" edge="1" parent="1" source="Ba882-5L1owNX3IlnAx7-6" target="Ba882-5L1owNX3IlnAx7-5">
          <mxGeometry width="50" height="50" relative="1" as="geometry">
            <mxPoint x="220" y="368.7704918032787" as="sourcePoint" />
            <mxPoint x="292" y="385" as="targetPoint" />
          </mxGeometry>
        </mxCell>
        <mxCell id="Ba882-5L1owNX3IlnAx7-15" value="" style="endArrow=classic;startArrow=classic;html=1;rounded=0;entryX=0;entryY=0.5;entryDx=0;entryDy=0;entryPerimeter=0;exitX=1;exitY=0.5;exitDx=0;exitDy=0;exitPerimeter=0;" edge="1" parent="1" source="Ba882-5L1owNX3IlnAx7-7" target="Ba882-5L1owNX3IlnAx7-5">
          <mxGeometry width="50" height="50" relative="1" as="geometry">
            <mxPoint x="220" y="401.2295081967213" as="sourcePoint" />
            <mxPoint x="292" y="385" as="targetPoint" />
          </mxGeometry>
        </mxCell>
        <mxCell id="Ba882-5L1owNX3IlnAx7-17" value="&lt;font color=&quot;#1a1a1a&quot; size=&quot;1&quot;&gt;&lt;b style=&quot;font-size: 18px&quot;&gt;支付公司内网&lt;/b&gt;&lt;/font&gt;" style="html=1;outlineConnect=0;fillColor=#CCCCCC;strokeColor=#6881B3;gradientColor=none;gradientDirection=north;strokeWidth=2;shape=mxgraph.networks.cloud;fontColor=#ffffff;" vertex="1" parent="1">
          <mxGeometry x="260" y="570" width="144" height="80" as="geometry" />
        </mxCell>
        <mxCell id="Ba882-5L1owNX3IlnAx7-18" value="安全在线检测设备1" style="fontColor=#0066CC;verticalAlign=top;verticalLabelPosition=bottom;labelPosition=center;align=center;html=1;outlineConnect=0;fillColor=#CCCCCC;strokeColor=#6881B3;gradientColor=none;gradientDirection=north;strokeWidth=2;shape=mxgraph.networks.nas_filer;" vertex="1" parent="1">
          <mxGeometry x="440" y="330" width="100" height="35" as="geometry" />
        </mxCell>
        <mxCell id="Ba882-5L1owNX3IlnAx7-19" value="安全在线检测设备2" style="fontColor=#0066CC;verticalAlign=top;verticalLabelPosition=bottom;labelPosition=center;align=center;html=1;outlineConnect=0;fillColor=#CCCCCC;strokeColor=#6881B3;gradientColor=none;gradientDirection=north;strokeWidth=2;shape=mxgraph.networks.nas_filer;" vertex="1" parent="1">
          <mxGeometry x="440" y="390" width="100" height="35" as="geometry" />
        </mxCell>
        <mxCell id="Ba882-5L1owNX3IlnAx7-20" value="安全在线检测设备3" style="fontColor=#0066CC;verticalAlign=top;verticalLabelPosition=bottom;labelPosition=center;align=center;html=1;outlineConnect=0;fillColor=#CCCCCC;strokeColor=#6881B3;gradientColor=none;gradientDirection=north;strokeWidth=2;shape=mxgraph.networks.nas_filer;" vertex="1" parent="1">
          <mxGeometry x="440" y="450" width="100" height="35" as="geometry" />
        </mxCell>
        <mxCell id="Ba882-5L1owNX3IlnAx7-21" value="" style="endArrow=classic;startArrow=classic;html=1;rounded=0;entryX=1;entryY=0.5;entryDx=0;entryDy=0;entryPerimeter=0;exitX=0;exitY=0.5;exitDx=0;exitDy=0;exitPerimeter=0;" edge="1" parent="1" source="Ba882-5L1owNX3IlnAx7-19" target="Ba882-5L1owNX3IlnAx7-5">
          <mxGeometry width="50" height="50" relative="1" as="geometry">
            <mxPoint x="612" y="375" as="sourcePoint" />
            <mxPoint x="540" y="310" as="targetPoint" />
          </mxGeometry>
        </mxCell>
        <mxCell id="Ba882-5L1owNX3IlnAx7-22" value="" style="endArrow=classic;startArrow=classic;html=1;rounded=0;entryX=1;entryY=0.5;entryDx=0;entryDy=0;entryPerimeter=0;" edge="1" parent="1" source="Ba882-5L1owNX3IlnAx7-18" target="Ba882-5L1owNX3IlnAx7-5">
          <mxGeometry width="50" height="50" relative="1" as="geometry">
            <mxPoint x="612" y="375" as="sourcePoint" />
            <mxPoint x="550" y="368.7704918032787" as="targetPoint" />
          </mxGeometry>
        </mxCell>
        <mxCell id="Ba882-5L1owNX3IlnAx7-23" value="" style="endArrow=classic;startArrow=classic;html=1;rounded=0;entryX=1;entryY=0.5;entryDx=0;entryDy=0;entryPerimeter=0;exitX=0;exitY=0.5;exitDx=0;exitDy=0;exitPerimeter=0;" edge="1" parent="1" source="Ba882-5L1owNX3IlnAx7-20" target="Ba882-5L1owNX3IlnAx7-5">
          <mxGeometry width="50" height="50" relative="1" as="geometry">
            <mxPoint x="612" y="375" as="sourcePoint" />
            <mxPoint x="550" y="401.2295081967213" as="targetPoint" />
          </mxGeometry>
        </mxCell>
        <mxCell id="Ba882-5L1owNX3IlnAx7-26" value="" style="endArrow=classic;startArrow=classic;html=1;rounded=0;fontSize=16;fontColor=#1A1A1A;entryX=0.5;entryY=1;entryDx=0;entryDy=0;entryPerimeter=0;exitX=0.06;exitY=0.5;exitDx=0;exitDy=0;exitPerimeter=0;" edge="1" parent="1" source="Ba882-5L1owNX3IlnAx7-17" target="Ba882-5L1owNX3IlnAx7-5">
          <mxGeometry width="50" height="50" relative="1" as="geometry">
            <mxPoint x="290" y="520" as="sourcePoint" />
            <mxPoint x="340" y="470" as="targetPoint" />
          </mxGeometry>
        </mxCell>
        <mxCell id="Ba882-5L1owNX3IlnAx7-27" value="" style="endArrow=classic;startArrow=classic;html=1;rounded=0;fontSize=16;fontColor=#1A1A1A;exitX=0.5;exitY=1;exitDx=0;exitDy=0;exitPerimeter=0;entryX=0.91;entryY=0.5;entryDx=0;entryDy=0;entryPerimeter=0;" edge="1" parent="1" source="Ba882-5L1owNX3IlnAx7-5" target="Ba882-5L1owNX3IlnAx7-17">
          <mxGeometry width="50" height="50" relative="1" as="geometry">
            <mxPoint x="550" y="380" as="sourcePoint" />
            <mxPoint x="600" y="330" as="targetPoint" />
          </mxGeometry>
        </mxCell>
      </root>
    </mxGraphModel>
  </diagram>
</mxfile>
